<svg xmlns="http://www.w3.org/2000/svg" width="31" height="20" viewBox="0 0 31 20">
  <defs>
    <style>
      .cls-1 {
        fill-rule: evenodd;
      }
    </style>
  </defs>
  <path id="Left_arrow" data-name="Left arrow" class="cls-1" d="M1456,2584h28a1,1,0,0,1,0,2h-28A1,1,0,0,1,1456,2584Zm7.32-8.71-9.03,9.03a0.983,0.983,0,1,0,1.39,1.39l9.03-9.03A0.983,0.983,0,1,0,1463.32,2575.29Zm-7.64,9,9.03,9.03a0.983,0.983,0,1,1-1.39,1.39l-9.03-9.03A0.983,0.983,0,1,1,1455.68,2584.29Z" transform="translate(-1454 -2575)"/>
</svg>
